<svg id="Capa_1" enable-background="new 0 0 512 512" height="512" viewBox="0 0 512 512" width="512" xmlns="http://www.w3.org/2000/svg"><g><g><path d="m241 373.817v138.183h15l13-62.941-13-75.242z" fill="#dddde1"/><path d="m256 373.817h15v138.183h-15z" fill="#b8b8be"/></g><path d="m382.787 253.411c-.956 0-1.924-.012-2.879-.034l-121.04-99.774c-1.905-8.773-2.871-17.821-2.871-26.892 0-69.868 56.878-126.711 126.79-126.711 69.918 0 126.8 56.842 126.8 126.711 0 69.863-56.882 126.7-126.8 126.7z" fill="#ff864c"/><path d="m129.213 253.411c-69.918 0-126.8-56.838-126.8-126.7 0-69.869 56.882-126.711 126.8-126.711 69.912 0 126.79 56.842 126.79 126.711 0 9.051-.961 18.091-2.857 26.867l-121.054 99.799c-.955.022-1.923.034-2.879.034z" fill="#a4ea2e"/><g><path d="m439.619 456.913h-34.322c-30.327 0-55-24.655-55-54.961v-163.53h30v163.53c0 13.775 11.215 24.982 25 24.982h34.322z" fill="#ff4d4d"/><path d="m106.713 456.913h-34.332v-29.979h34.332c13.785 0 25-11.207 25-24.982v-163.53h30v163.53c0 30.306-24.673 54.961-55 54.961z" fill="#1fc73d"/></g><g><path d="m256 131.398c-69.914 0-126.794 56.84-126.794 126.704s56.88 126.704 126.794 126.704l25.717-126.117z" fill="#eeeef0"/><path d="m256 131.398v253.408c69.914 0 126.794-56.84 126.794-126.704s-56.88-126.704-126.794-126.704z" fill="#dddde1"/></g></g></svg>